<svg width="146" height="208" viewBox="0 0 146 208" fill="none" xmlns="http://www.w3.org/2000/svg">
<g clip-path="url(#clip0_573_498)">
<path fill-rule="evenodd" clip-rule="evenodd" d="M127.827 55.0857L142.593 35.6408L126.708 54.786" fill="black"/>
<path fill-rule="evenodd" clip-rule="evenodd" d="M144.705 36.9149L130.879 55.1105C130.478 55.6418 129.71 55.7496 129.182 55.3392C129.146 55.307 129.107 55.2854 129.081 55.2561C128.722 55.3393 128.327 55.267 128.027 55.0074C127.515 54.5788 127.438 53.819 127.867 53.3065L143.751 34.1613C144.166 33.6564 144.916 33.5772 145.434 33.9848C145.506 34.049 145.578 34.1133 145.638 34.1851L155.066 46.1996C155.474 46.7235 155.383 47.4832 154.859 47.8917C154.335 48.3002 153.575 48.2087 153.167 47.6847L144.697 36.9016L144.705 36.9149Z" fill="black"/>
<path fill-rule="evenodd" clip-rule="evenodd" d="M105.368 183.719L102.492 161.048C102.412 160.388 101.8 159.911 101.137 160.002C101.09 160.011 101.045 160.011 101.008 160.023C100.74 159.772 100.361 159.637 99.9715 159.712C99.3134 159.827 98.8672 160.447 98.9822 161.105L103.166 185.627C103.273 186.272 103.882 186.715 104.535 186.621C104.629 186.602 104.724 186.582 104.811 186.55L118.984 180.859C119.599 180.609 119.9 179.906 119.65 179.29C119.401 178.674 118.697 178.374 118.082 178.623L105.355 183.727L105.368 183.719Z" fill="black"/>
<path d="M23.0946 86.1606C22.0231 85.1006 21.6033 83.5318 21.9926 82.079C22.3819 80.6262 23.5298 79.4775 24.9877 79.0952C52.902 71.7431 154.604 44.9548 182.336 37.6547C183.794 37.2724 185.338 37.6973 186.399 38.7546C187.457 39.8223 187.872 41.3673 187.483 42.8201L145.682 198.823C145.293 200.276 144.161 201.407 142.711 201.802C141.26 202.198 139.713 201.783 138.642 200.723C118.275 180.535 43.6034 106.488 23.0946 86.1606Z" fill="#E33D35"/>
<path fill-rule="evenodd" clip-rule="evenodd" d="M117.11 182.249C117.625 183.462 119.02 184.027 120.23 183.522L120.902 183.231C122.115 182.716 122.68 181.322 122.175 180.111C121.67 178.9 120.265 178.333 119.055 178.838L118.383 179.129C117.17 179.644 116.605 181.038 117.11 182.249Z" fill="black"/>
<path fill-rule="evenodd" clip-rule="evenodd" d="M125.937 118.704C119.528 116.034 126.328 110.261 126.328 110.261C126.328 110.261 119.918 99.5259 129.201 95.3591C134.105 93.9062 137.334 104.181 136.74 107.82C136.135 111.455 130.313 120.515 125.95 118.696L125.937 118.704Z" fill="white"/>
<mask id="mask0_573_498" style="mask-type:luminance" maskUnits="userSpaceOnUse" x="123" y="95" width="14" height="24">
<path d="M125.937 118.704C119.528 116.035 126.328 110.262 126.328 110.262C126.328 110.262 119.918 99.5266 129.201 95.3599C134.105 93.9069 137.334 104.182 136.74 107.82C136.135 111.456 130.313 120.516 125.95 118.697L125.937 118.704Z" fill="white"/>
</mask>
<g mask="url(#mask0_573_498)">
<path d="M137.973 101.754C138.056 101.776 138.126 101.851 138.132 101.954C138.143 102.08 138.047 102.188 137.923 102.189L121.458 103.479C121.331 103.49 121.223 103.394 121.222 103.27C121.211 103.144 121.308 103.035 121.431 103.035L137.897 101.745C137.897 101.745 137.952 101.748 137.973 101.754Z" fill="black"/>
<path d="M138.835 108.317C138.919 108.339 138.989 108.414 138.995 108.517C139.006 108.643 138.909 108.751 138.786 108.752L122.32 110.042C122.194 110.053 122.086 109.957 122.085 109.833C122.074 109.707 122.17 109.598 122.294 109.598L138.759 108.308C138.759 108.308 138.814 108.311 138.835 108.317Z" fill="black"/>
<path d="M137.104 113.397C137.188 113.42 137.258 113.495 137.264 113.597C137.275 113.723 137.178 113.832 137.055 113.832L120.589 115.122C120.463 115.133 120.355 115.037 120.354 114.914C120.343 114.787 120.439 114.679 120.563 114.678L137.028 113.388C137.028 113.388 137.083 113.392 137.104 113.397Z" fill="black"/>
</g>
<path fill-rule="evenodd" clip-rule="evenodd" d="M77.9607 114.765C77.7416 114.998 77.6937 115.344 77.8307 115.627C78.0539 116.09 78.3883 116.807 78.6623 117.373C78.7714 117.593 78.9734 117.759 79.2137 117.823C79.4541 117.888 79.7044 117.832 79.904 117.672C82.0604 116.021 87.9576 111.529 89.9835 109.989C90.1642 109.858 90.2753 109.652 90.3027 109.424C90.3274 109.207 90.2524 108.985 90.1083 108.812C89.454 108.077 88.3904 106.862 87.6798 106.044C87.4918 105.826 87.2132 105.695 86.9218 105.695C86.6333 105.685 86.3529 105.812 86.1631 106.019C84.2495 108.06 79.353 113.29 77.9768 114.747L77.9607 114.765Z" fill="black"/>
<path fill-rule="evenodd" clip-rule="evenodd" d="M86.3119 83.5965C86.2384 83.2855 86.3698 82.9623 86.63 82.7855C87.0549 82.4961 87.7029 82.0424 88.2233 81.689C88.4277 81.5533 88.6856 81.5104 88.926 81.5748C89.1664 81.6392 89.3551 81.813 89.4482 82.0508C90.49 84.5592 93.3514 91.3975 94.3356 93.7448C94.4266 93.9484 94.4201 94.1819 94.3299 94.393C94.2426 94.5936 94.0667 94.7481 93.8554 94.826C92.9211 95.1357 91.3926 95.6559 90.3683 96.0088C90.0963 96.104 89.7897 96.0778 89.5375 95.9318C89.2826 95.7963 89.1031 95.5465 89.0421 95.2726C88.4055 92.5479 86.78 85.5703 86.3168 83.6202L86.3119 83.5965Z" fill="black"/>
<path fill-rule="evenodd" clip-rule="evenodd" d="M72.0503 165.336C71.9007 165.644 71.9812 166.012 72.2318 166.248C72.4824 166.483 72.8546 166.515 73.1462 166.347C81.6026 161.376 112.057 143.458 118.189 139.847C118.801 139.485 119.04 138.719 118.73 138.076C116.261 132.911 106.064 111.516 102.775 104.642C102.59 104.245 102.195 104.005 101.76 104C101.324 103.996 100.931 104.249 100.746 104.647C96.0952 114.48 76.8348 155.215 72.0475 165.347L72.0503 165.336Z" fill="black"/>
<mask id="mask1_573_498" style="mask-type:luminance" maskUnits="userSpaceOnUse" x="71" y="104" width="48" height="63">
<path d="M72.0503 165.336C71.9007 165.644 71.9812 166.012 72.2318 166.248C72.4824 166.483 72.8546 166.515 73.1462 166.347C81.6026 161.376 112.057 143.458 118.189 139.847C118.801 139.485 119.04 138.719 118.73 138.076C116.261 132.911 106.064 111.516 102.775 104.642C102.59 104.245 102.195 104.005 101.76 104C101.321 104.006 100.931 104.249 100.746 104.647C96.0952 114.48 76.8348 155.215 72.0475 165.347L72.0503 165.336Z" fill="white"/>
</mask>
<g mask="url(#mask1_573_498)">
<path d="M70.1119 125.549L94.8154 178.07L103.305 174.077L78.6011 121.556L70.1119 125.549Z" fill="white"/>
<path d="M81.528 116.802L106.231 169.323L111.108 167.03L86.4041 114.508L81.528 116.802Z" fill="white"/>
</g>
<path fill-rule="evenodd" clip-rule="evenodd" d="M102.089 108.917C102.089 108.917 98.9203 103.643 104.304 100.65L102.089 108.917Z" fill="black"/>
<path d="M102.089 108.917C102.089 108.917 98.9203 103.643 104.304 100.65" stroke="black" stroke-width="1.64657" stroke-linecap="round" stroke-linejoin="round"/>
<path fill-rule="evenodd" clip-rule="evenodd" d="M106.499 36.7687C106.523 36.4279 106.777 36.1487 107.112 36.0703C107.447 35.9919 107.785 36.1499 107.954 36.4414C112.792 44.9744 130.207 75.7194 133.711 81.9123C134.061 82.5324 133.885 83.3142 133.295 83.7164C128.574 86.9546 109.046 100.385 102.761 104.694C102.402 104.945 101.94 104.956 101.56 104.742C101.181 104.528 100.967 104.113 101.006 103.675C101.895 92.834 105.582 47.9267 106.502 36.7582L106.499 36.7687Z" fill="black"/>
<mask id="mask2_573_498" style="mask-type:luminance" maskUnits="userSpaceOnUse" x="101" y="36" width="33" height="69">
<path d="M106.499 36.7698C106.523 36.429 106.777 36.1498 107.112 36.0714C107.447 35.993 107.785 36.151 107.954 36.4425C112.792 44.9755 130.207 75.7205 133.711 81.9134C134.061 82.5335 133.885 83.3153 133.295 83.7175C128.574 86.9557 109.046 100.386 102.761 104.695C102.402 104.946 101.94 104.957 101.56 104.743C101.181 104.529 100.967 104.114 101.006 103.676C101.895 92.8351 105.582 47.9278 106.502 36.7593L106.499 36.7698Z" fill="white"/>
</mask>
<g mask="url(#mask2_573_498)">
<path d="M85.9308 66.5308L110.634 119.052L119.123 115.059L94.42 62.5379L85.9308 66.5308Z" fill="white"/>
<path d="M97.3405 57.7819L122.044 110.303L126.92 108.01L102.217 55.4884L97.3405 57.7819Z" fill="white"/>
</g>
</g>
<defs>
<clipPath id="clip0_573_498">
<rect width="169.946" height="166.559" fill="white" transform="translate(0 164.156) rotate(-75)"/>
</clipPath>
</defs>
</svg>
