<svg preserveAspectRatio="none" overflow="visible" style="display: block;" width="161.399" height="142.214" viewBox="0 0 161.399 142.214" fill="none" xmlns="http://www.w3.org/2000/svg">
<g id="Group">
<path id="Vector" d="M76.189 139.337C76.189 140.924 74.8989 142.214 73.3127 142.214H53.3163C53.0308 142.214 52.7981 141.981 52.7981 141.696V139.295C52.7981 138.703 53.1471 138.153 53.6864 137.91C56.5098 136.63 65.0435 132.75 65.0435 132.75V111.59H76.1784V139.348L76.189 139.337Z" fill="#DD74A5"/>
<g id="Group_2" opacity="0.36">
<path id="Vector_2" fill-rule="evenodd" clip-rule="evenodd" d="M76.1885 119.711V133.035L65.0536 125.485V119.119L67.8981 116.93L76.1991 119.69L76.1885 119.711Z" fill="black"/>
</g>
<path id="Vector_3" d="M85.0915 139.337C85.0915 140.924 86.3816 142.214 87.9678 142.214H107.964C108.25 142.214 108.482 141.981 108.482 141.696V139.295C108.482 138.703 108.133 138.153 107.594 137.91C104.771 136.63 96.2371 132.75 96.2371 132.75V111.59H85.1021V139.348L85.0915 139.337Z" fill="#DD74A5"/>
<g id="Group_3" opacity="0.36">
<path id="Vector_4" fill-rule="evenodd" clip-rule="evenodd" d="M85.0937 119.711V133.035L96.2287 125.485V119.119L93.3841 116.93L85.0831 119.69L85.0937 119.711Z" fill="black"/>
</g>
<path id="Vector_5" fill-rule="evenodd" clip-rule="evenodd" d="M135.355 86.6655V100.032C135.355 100.349 135.122 100.613 134.805 100.656C134.805 100.656 121.619 102.284 115.02 106.683C114.735 106.873 114.343 106.799 114.153 106.514C113.963 106.228 114.037 105.837 114.322 105.647C120.286 101.671 131.495 99.8731 134.097 99.4924V98.9531L133.367 91.6884C133.335 91.3395 133.578 91.0328 133.927 91.0011C133.98 91.0011 134.044 91.0011 134.097 91.0011V86.6655C134.097 86.3166 134.382 86.0416 134.72 86.0416C135.059 86.0416 135.344 86.3271 135.344 86.6655H135.355Z" fill="black"/>
<path id="Vector_6" fill-rule="evenodd" clip-rule="evenodd" d="M24.4354 98.8897L24.3826 99.4714C24.372 99.5877 24.3826 99.704 24.4354 99.7992V98.8897Z" fill="black"/>
<path id="Vector_7" fill-rule="evenodd" clip-rule="evenodd" d="M24.4369 86.6655V100.032C24.4369 100.349 24.6695 100.613 24.9867 100.656C24.9867 100.656 38.1732 102.284 44.7717 106.683C45.0572 106.873 45.4485 106.799 45.6388 106.514C45.8291 106.228 45.7551 105.837 45.4696 105.647C39.5056 101.671 28.2966 99.8731 25.6952 99.4924V98.9531L26.4249 91.6884C26.4566 91.3395 26.2134 91.0328 25.8644 91.0011C25.8115 91.0011 25.7481 91.0011 25.6952 91.0011V86.6655C25.6952 86.3166 25.4097 86.0416 25.0713 86.0416C24.7329 86.0416 24.4474 86.3271 24.4474 86.6655H24.4369Z" fill="black"/>
<path id="Vector_8" d="M84.9981 129.715C82.3545 131.301 79.0552 131.301 76.4116 129.715C59.7038 119.362 0 79.9404 0 45.4674C0 43.4371 0.0740217 41.3433 0.200916 39.1861C1.29009 19.3271 16.3271 3.03179 36.038 0.377588C55.5586 -2.25547 74.2015 9.20732 80.6943 27.7339C87.1976 9.19674 105.841 -2.26604 125.361 0.377588C145.072 3.04237 160.12 19.3271 161.198 39.1861C161.325 41.3433 161.399 43.4476 161.399 45.4674C161.399 79.9404 101.695 119.352 84.9981 129.715Z" fill="#DD74A5"/>
<path id="Vector_9" fill-rule="evenodd" clip-rule="evenodd" d="M26.9324 42.1045C26.668 41.9564 26.5411 41.6286 26.6468 41.3431C26.6574 41.3114 26.668 41.2796 26.6891 41.2479C26.8372 40.9836 27.165 40.8567 27.4505 40.9624C27.514 40.9836 33.3405 43.0985 38.1202 40.9836C38.4374 40.8461 38.8076 40.9836 38.945 41.3008C39.0825 41.618 38.945 41.9881 38.6278 42.1256C38.374 42.2419 38.1096 42.3477 37.8453 42.4428C37.8453 42.4428 37.8453 42.464 37.8559 42.4746C37.9616 42.8024 37.7924 43.1619 37.4646 43.2677C32.2936 44.9913 27.1227 42.2102 26.9429 42.115L26.9324 42.1045Z" fill="black"/>
<path id="Vector_10" fill-rule="evenodd" clip-rule="evenodd" d="M133.66 42.1045C133.924 41.9564 134.051 41.6286 133.946 41.3431C133.935 41.3114 133.924 41.2796 133.903 41.2479C133.755 40.9836 133.427 40.8567 133.142 40.9624C133.079 40.9836 127.252 43.0985 122.472 40.9836C122.155 40.8461 121.785 40.9836 121.647 41.3008C121.51 41.618 121.647 41.9881 121.965 42.1256C122.218 42.2419 122.483 42.3477 122.747 42.4428C122.747 42.4428 122.747 42.464 122.737 42.4746C122.631 42.8024 122.8 43.1619 123.128 43.2677C128.299 44.9913 133.47 42.2102 133.65 42.115L133.66 42.1045Z" fill="black"/>
<g id="Group_4">
<path id="Vector_11" d="M107.426 87.649C121.827 87.649 133.502 76.1681 133.502 62.0058C133.502 47.8434 121.827 36.3625 107.426 36.3625C93.0238 36.3625 81.3488 47.8434 81.3488 62.0058C81.3488 76.1681 93.0238 87.649 107.426 87.649Z" fill="white"/>
<path id="Vector_12" d="M104.951 81.5264C115.837 81.5264 124.662 72.8483 124.662 62.1433C124.662 51.4383 115.837 42.7602 104.951 42.7602C94.0649 42.7602 85.24 51.4383 85.24 62.1433C85.24 72.8483 94.0649 81.5264 104.951 81.5264Z" fill="black"/>
</g>
<g id="Group_5">
<path id="Vector_13" d="M53.4017 87.649C67.8035 87.649 79.4785 76.1681 79.4785 62.0057C79.4785 47.8434 67.8035 36.3625 53.4017 36.3625C38.9998 36.3625 27.3249 47.8434 27.3249 62.0057C27.3249 76.1681 38.9998 87.649 53.4017 87.649Z" fill="white"/>
<path id="Vector_14" d="M55.8673 81.5264C66.7534 81.5264 75.5783 72.8483 75.5783 62.1433C75.5783 51.4383 66.7534 42.7602 55.8673 42.7602C44.9813 42.7602 36.1564 51.4383 36.1564 62.1433C36.1564 72.8483 44.9813 81.5264 55.8673 81.5264Z" fill="black"/>
</g>
<path id="Vector_15" d="M86.9208 87.7865C86.9208 87.9769 86.8362 88.1672 86.6776 88.2941L80.555 93.3064C80.3012 93.5074 79.9417 93.4968 79.709 93.2853L74.1362 88.273C73.8719 88.0298 73.8507 87.6173 74.0834 87.353C74.3266 87.0886 74.739 87.0675 75.0033 87.3001L80.1531 91.9423L85.8422 87.279C86.1172 87.0463 86.5296 87.0886 86.7622 87.3741C86.8574 87.4904 86.9103 87.6385 86.9103 87.7865H86.9208Z" fill="black"/>
<path id="Vector_16" fill-rule="evenodd" clip-rule="evenodd" d="M56.4354 32.3549C56.6258 32.3126 56.795 32.1857 56.9007 32.0165C57.0064 31.8473 57.0276 31.6464 56.9747 31.4455L56.8795 31.0754C56.8161 30.8322 56.6469 30.6207 56.4248 30.4938C56.2028 30.3669 55.9384 30.3457 55.6952 30.4197C52.9141 31.2869 44.8034 33.8036 44.8034 33.8036C44.8034 33.8036 44.7717 33.8882 44.7294 34.0151C44.6448 34.2583 44.6977 34.5227 44.8669 34.713C45.0361 34.9034 45.3004 34.9879 45.5436 34.9245" fill="black"/>
<path id="Vector_17" fill-rule="evenodd" clip-rule="evenodd" d="M113.462 33.814C113.462 33.814 113.494 33.9092 113.536 34.0255C113.621 34.2687 113.568 34.5331 113.399 34.7235C113.23 34.9138 112.965 34.9984 112.722 34.9349C110.068 34.3005 103.945 32.8518 101.83 32.3442C101.64 32.3019 101.471 32.175 101.365 32.0058C101.259 31.8366 101.238 31.6357 101.291 31.4348L101.386 31.0647C101.45 30.8215 101.619 30.61 101.841 30.4831C102.063 30.3562 102.327 30.335 102.57 30.409" fill="black"/>
</g>
</svg>
